<svg width="25" height="26" viewBox="0 0 25 26" fill="none" xmlns="http://www.w3.org/2000/svg">
<path d="M11.8424 21.0463C7.91243 20.4707 4.89643 17.0828 4.89643 12.9891C4.89643 8.89538 7.91243 5.50748 11.8424 4.93221V0.692383C5.58554 1.29084 0.692322 6.56774 0.692322 12.9891C0.692322 19.4104 5.58554 24.687 11.8424 25.2858V21.0463Z" fill="white"/>
<path d="M19.9983 5L19.8892 5.37109V16.1393L19.9983 16.2483L24.9968 13.2937L19.9983 5Z" fill="white"/>
<path d="M19.9984 5L14.9999 13.2937L19.9984 16.2483V11.0217V5Z" fill="white"/>
<path d="M19.9986 17.8742L19.9371 17.9492V21.7851L19.9986 21.9648L25.0001 14.9211L19.9986 17.8742Z" fill="white"/>
<path d="M19.9984 21.9648V17.8742L14.9999 14.9211L19.9984 21.9648Z" fill="white"/>
<path d="M19.9984 16.2482L24.9968 13.2937L19.9984 11.0217V16.2482Z" fill="white"/>
<path d="M14.9999 13.2937L19.9983 16.2482V11.0217L14.9999 13.2937Z" fill="white"/>
</svg>
