<svg width="25" height="26" fill="none" xmlns="http://www.w3.org/2000/svg"><path d="M11.842 21.046a8.141 8.141 0 01-6.946-8.057 8.14 8.14 0 016.946-8.057V.692C5.586 1.291.692 6.568.692 12.99s4.894 11.698 11.15 12.297v-4.24zM19.998 5l-.109.371V16.14l.11.11 4.998-2.955L19.998 5z" fill="#fff"/><path d="M19.998 5L15 13.294l4.998 2.954V5zm.001 12.874l-.062.075v3.836l.062.18L25 14.92l-5 2.954z" fill="#fff"/><path d="M19.998 21.965v-4.09L15 14.92l4.998 7.044zm0-5.717l4.999-2.954-4.999-2.272v5.226zM15 13.294l4.998 2.954v-5.226L15 13.294z" fill="#fff"/></svg>